{"title":"Along Came a Spider 2001 DVDRip XviD - NoZGT","uid":7030004,"size":882028648,"categoryP":"video","categoryS":"movies","magnet":"?xt=urn:btih:b02d4fd97eb401600044783482a1063484d13d6a&amp;dn=Along+Came+a+Spider+2001+DVDRip+XviD+-+NoZGT&amp;tr=udp%3A%2F%2Ftracker.openbittorrent.com%3A80&amp;tr=udp%3A%2F%2Fopen.demonii.com%3A1337&amp;tr=udp%3A%2F%2Ftracker.coppersurfer.tk%3A6969&amp;tr=udp%3A%2F%2Fexodus.desync.com%3A6969","seeders":0,"leechers":1,"uploader":"TvTeam","files":7,"time":1329196972,"description":". \n &lt;a href=&quot;\nhttp://www.torrenting.com&quot; rel=&quot;nofollow&quot; target=&quot;_NEW&quot;&gt;\nhttp://www.torrenting.com&lt;/a&gt;          :     Once &amp; For all ;)\n\n\n               www . Torrenting . Com \n\n(((((((((((((= Enjoy No RAR releases =))))))))))))))))))))\n\n\n...................................NFO:....................................\n\n.\nSource: Along Came a Spider 2001 DVDRip\n\nFormat                           : AVI\nFormat/Info                      : Audio Video Interleave\nFile size                        : 833 MiB\nDuration                         : 1h 43mn\nOverall bit rate                 : 1 129 Kbps\nWriting library                  : VirtualDub build 33848/release\n\nVideo\nID                               : 0\nFormat                           : MPEG-4 Visual\nFormat profile                   : Advanced Simple@L5\nFormat settings, BVOP            : Yes\nFormat settings, QPel            : No\nFormat settings, GMC             : No warppoints\nFormat settings, Matrix          : Default (H.263)\nMuxing mode                      : Packed bitstream\nCodec ID                         : XVID\nCodec ID/Hint                    : XviD\nDuration                         : 1h 43mn\nBit rate                         : 926 Kbps\nWidth                            : 720 pixels\nHeight                           : 304 pixels\nDisplay aspect ratio             : 2.35:1\nFrame rate                       : 29.970 fps\nColor space                      : YUV\nChroma subsampling               : 4:2:0\nBit depth                        : 8 bits\nScan type                        : Progressive\nBits/(Pixel*Frame)               : 0.141\nStream size                      : 682 MiB (82%)\nWriting library                  : XviD 1.2.1 (UTC 2008-12-04)\n\nAudio\nID                               : 1\nFormat                           : MPEG Audio\nFormat version                   : Version 1\nFormat profile                   : Layer 3\nCodec ID                         : 55\nCodec ID/Hint                    : MP3\nDuration                         : 1h 43mn\nBit rate mode                    : Constant\nBit rate                         : 192 Kbps\nChannel(s)                       : 2 channels\nSampling rate                    : 44.1 KHz\nStream size                      : 142 MiB (17%)\nAlignment                        : Split accross interleaves\nInterleave, duration             : 33 ms (1.00 video frame)\nInterleave, preload duration     : 500 ms\n\nWorkdone:\nHad to crop the black border off around it.\n\nEnjoy!\nNoZGT","torrent":{"xt":"urn:btih:b02d4fd97eb401600044783482a1063484d13d6a","amp;dn":"Along+Came+a+Spider+2001+DVDRip+XviD+-+NoZGT","amp;tr":["udp%3A%2F%2Ftracker.openbittorrent.com%3A80","udp%3A%2F%2Fopen.demonii.com%3A1337","udp%3A%2F%2Ftracker.coppersurfer.tk%3A6969","udp%3A%2F%2Fexodus.desync.com%3A6969"],"infoHash":"b02d4fd97eb401600044783482a1063484d13d6a","infoHashBuffer":{"type":"Buffer","data":[176,45,79,217,126,180,1,96,0,68,120,52,130,161,6,52,132,209,61,106]},"announce":[],"urlList":[]}}